<svg xmlns="http://www.w3.org/2000/svg" viewBox="0 0 881.04 873.19"><defs><style>.cls-1,.cls-4{fill:#5f5f5f;}.cls-1,.cls-3{opacity:0.5;}.cls-2{fill:#272525;}.cls-2,.cls-5{opacity:0.32;}</style></defs><title>logo</title><g id="Layer_2" data-name="Layer 2"><g id="Layer_2-2" data-name="Layer 2"><path class="cls-1" d="M164.92,111.83,1.53,316.65c-2.86,3.59-1.61,8.32,2.84,10.71l160.55,86.26Z"/><path class="cls-1" d="M713.2,111.83V413.62l163.24-82.7c4.62-2.33,6-7.16,3.06-10.82Z"/><path class="cls-1" d="M164.92,111.83H713.2V823.19s-21.62,50-48.28,50H213.2c-26.67,0-48.28-50-48.28-50Z"/><path class="cls-2" d="M269,113.64l76.11,86.13a12.06,12.06,0,0,0,15.76,2L374,193"/><g class="cls-3"><path class="cls-4" d="M265.57,110.3l86.51,83.8A15,15,0,0,0,374,193l64.71-76.58L306.93,0Z"/><path class="cls-4" d="M612.55,110.3,526,194.1a15,15,0,0,1-21.9-1.09l-65.46-76.58L571.19,0Z"/><polygon class="cls-4" points="306.93 0 571.95 0 438.68 116.43 306.93 0"/></g><path class="cls-5" d="M830.45,354.22l-88.9,45L713.2,413.61V111.83l23.31,236.29a17.92,17.92,0,0,0,20.2,16Z"/><path class="cls-5" d="M164.92,111.83V413.61l-33.51-18L37.23,345l79.88,14.82a17.26,17.26,0,0,0,20.29-14.95Z"/><polygon class="cls-5" points="373.97 193.01 438.68 142.47 487.52 173.34 438.68 116.43 373.97 193.01"/><path class="cls-5" d="M572,2V99.17L504.14,193s12.38,13.51,26.42-3.28,82-79.43,82-79.43Z"/><polygon class="cls-2" points="569.62 2.04 438.68 116.42 419.15 99.16 368.9 54.76 435.12 88.85 569.62 2.04"/><polygon class="cls-1" points="525.61 278.42 665.45 278.42 665.45 392.11 595.53 436.44 525.61 386.42 525.61 278.42"/></g></g></svg>